<svg viewBox="0 0 36 36" fill="none" xmlns="http://www.w3.org/2000/svg">
<circle opacity="0.75" cx="18" cy="18" r="18" fill="#EB5757"/>
<circle cx="17.9998" cy="17.9998" r="13.2" fill="#EB5757"/>
<path d="M19.3181 12.2196L19.0301 20.9136H16.9061L16.6001 12.2196H19.3181ZM18.0221 25.1256C17.5661 25.1256 17.1881 24.9876 16.8881 24.7116C16.6001 24.4236 16.4561 24.0696 16.4561 23.6496C16.4561 23.2296 16.6001 22.8816 16.8881 22.6056C17.1881 22.3176 17.5661 22.1736 18.0221 22.1736C18.4661 22.1736 18.8321 22.3176 19.1201 22.6056C19.4081 22.8816 19.5521 23.2296 19.5521 23.6496C19.5521 24.0696 19.4081 24.4236 19.1201 24.7116C18.8321 24.9876 18.4661 25.1256 18.0221 25.1256Z" fill="white"/>
</svg>
